<?xml version="1.0" encoding="UTF-8"?>
<svg id="Layer_2" data-name="Layer 2" xmlns="http://www.w3.org/2000/svg" viewBox="0 0 554.84 133.72">
  <defs>
    <style>
      .cls-1 {
        fill: #fff;
        stroke-width: 0px;
      }
    </style>
  </defs>
  <g id="Layer_1-2" data-name="Layer 1">
    <g>
      <path class="cls-1" d="m89.18,1.08c0,.52,0,1.05,0,1.57,0,11.21,0,22.43,0,33.64,0,.34,0,.69,0,1.03.02,1.27.02,1.29,1.3,1.29,4.13,0,8.27,0,12.4,0,1.37,0,1.38,0,1.38,1.36,0,8.16,0,16.33,0,24.49,0,8.9,0,17.8,0,26.7,0,1.7.12,1.62-1.58,1.62-3.89,0-7.77,0-11.66,0-1.99,0-1.84-.26-1.84,1.79,0,11.46,0,22.92,0,34.38,0,.52.08,1.05-.07,1.49-11.65-11.54-23.28-23.05-34.96-34.62-.41.54-.25,1.09-.25,1.58-.01,11.51,0,23.02-.01,34.52,0,1.88.31,1.78-1.7,1.77-2.41,0-2.02.24-2.03-2.03-.01-11.26,0-22.52-.01-33.79,0-.56.08-1.15-.09-1.64-11.57,11.48-23.11,22.92-34.71,34.43-.4-.63-.25-1.17-.25-1.67-.01-11.46,0-22.92-.01-34.38,0-1.95.28-1.84-1.8-1.84-3.74,0-7.48.01-11.22,0-2.27-.01-2.07.36-2.07-2,0-8.11,0-16.23,0-24.34,0-8.61,0-17.21,0-25.82,0-.3,0-.59,0-.89.03-1.1.03-1.12,1.17-1.12,4.03,0,8.07,0,12.1,0,.39,0,.79-.01,1.18,0,.42,0,.64-.19.63-.61,0-.39,0-.79,0-1.18,0-11.36,0-22.72,0-34.08,0-.53-.09-1.08.17-1.84,11.61,11.57,23.04,23.15,34.64,34.74.37-.6.24-1.14.24-1.64,0-10.72,0-21.44,0-32.16,0-2.09-.08-1.82,1.82-1.82,2.16,0,1.91-.24,1.91,1.86,0,10.72,0,21.44,0,32.16,0,.52,0,1.04,0,1.56.11.05.23.1.34.14,11.56-11.59,23.11-23.18,34.67-34.77.09.04.18.08.28.12Zm-3.76,120.51c0-.63,0-1.11,0-1.6,0-13.91-.03-27.82,0-41.72,0-1.18-.33-2.01-1.15-2.84-9.7-9.69-19.38-19.41-29.06-29.12-.3-.3-.56-.66-1.05-.85-.21.64-.13,1.23-.13,1.8,0,13.81,0,27.62-.03,41.43,0,1.18.34,2.01,1.17,2.83,9.7,9.69,19.37,19.42,29.05,29.13.3.31.55.69,1.19.94Zm-66.63-.06c.62-.17.85-.51,1.12-.78,9.83-9.85,19.65-19.71,29.49-29.56.53-.53.77-1.06.77-1.81-.02-14.36-.02-28.72-.02-43.07,0-.26.11-.6-.31-.76-.13.11-.29.21-.42.35-9.93,9.97-19.84,19.94-29.79,29.89-.66.66-.85,1.34-.85,2.22.02,13.96,0,27.93,0,41.89,0,.48,0,.97,0,1.63Zm28.44-79c-.22-.05-.31-.1-.4-.1-14.01-.01-28.02-.03-42.04-.03-1.06,0-1.08.03-1.08,1.2,0,4.23,0,8.45,0,12.68,0,10.47,0,20.94,0,31.4,0,1.31.02,1.33,1.26,1.33,2.95,0,5.9,0,8.85,0,1.26,0,1.27-.02,1.27-1.33,0-3.54.07-7.08-.03-10.61-.04-1.49.39-2.54,1.46-3.6,9.9-9.84,19.74-19.75,29.59-29.64.37-.38.82-.69,1.12-1.3Zm9.79-.11c.31.77.79,1.12,1.19,1.52,10,10.03,20,20.07,30.02,30.08.71.71,1.03,1.43,1.01,2.45-.05,3.79-.03,7.57-.02,11.36,0,1.16.02,1.19,1.09,1.19,3.05.01,6.1.02,9.15,0,1.01,0,1.01-.03,1.04-1.11,0-.15,0-.3,0-.44,0-14.51,0-29.01,0-43.52,0-1.74.07-1.55-1.63-1.55-13.43,0-26.86.01-40.29.02-.47,0-.94,0-1.56,0ZM18.88,9.83c-.06.5-.08.6-.08.7,0,8.94,0,17.88,0,26.82,0,.2,0,.39,0,.59,0,.41.16.65.6.65.29,0,.59,0,.88,0,8.55,0,17.1,0,25.65,0,.42,0,.84,0,1.63,0-9.67-9.7-19.08-19.13-28.68-28.77Zm38.05,28.46c.28.35.49.3.67.3,8.9,0,17.81,0,26.71,0,1.1,0,1.11-.03,1.11-1.32,0-8.75,0-17.51,0-26.26,0-.29.22-.69-.08-.81-9.5,9.39-18.94,18.72-28.41,28.09Z"/>
      <path class="cls-1" d="m296.2,93.7c0,4.33,0,8.65,0,12.98,0,1.13-.02,1.14-1.13,1.15-2.26.01-4.52.01-6.79,0-1.09,0-1.1-.02-1.11-1.17,0-.79,0-1.57,0-2.36,0-21.78,0-43.55,0-65.33,0-2.2-.32-1.9,1.98-1.91,2.02-.02,4.03.02,6.05-.02.76-.01,1.03.21,1.01,1-.05,2.26-.02,4.52-.02,6.78,0,.34-.03.69.02,1.03.09.62.55.79,1.05.43.33-.24.49-.61.68-.95,3.45-6.41,8.98-9.35,16.09-9.73,5.9-.32,11.34,1.03,16.13,4.54,5.27,3.87,8.41,9.17,9.67,15.53,1.23,6.17,1.06,12.32-1.04,18.32-3.58,10.25-12.79,16.6-23.64,16.36-3.23-.07-6.36-.58-9.29-1.99-3.39-1.63-5.91-4.18-7.73-7.45-.24-.43-.39-.91-.79-1.23-.53-.43-1.05-.22-1.13.46-.04.34-.01.69-.01,1.03,0,4.18,0,8.36,0,12.54Zm-.05-30.83c.01,1.92.07,3.83.4,5.73,1.21,6.88,5.14,11.3,11.91,13.15,2.31.63,4.66.68,7.03.54,7.24-.45,12.98-4.94,15.04-11.91,1.48-5.03,1.49-10.12-.08-15.11-1.89-6.01-6.01-9.79-12.17-11.24-3.01-.71-6.08-.74-9.08-.05-6.45,1.48-10.71,5.34-12.33,11.87-.57,2.31-.73,4.66-.71,7.02Z"/>
      <path class="cls-1" d="m146.59,72.4c0-11.16,0-22.32,0-33.48,0-.34.02-.69,0-1.03-.04-.55.17-.79.75-.79,2.51.02,5.02.03,7.52,0,.75,0,.75.42.74.95,0,2.36-.02,4.72,0,7.08,0,.49-.28,1.19.46,1.38.65.16.91-.42,1.19-.9.39-.68.77-1.38,1.21-2.03,2.76-4.07,6.59-6.53,11.41-7.45,6.82-1.3,13.23-.25,19.04,3.63,5.03,3.36,8.23,8.14,9.82,13.92,1.76,6.39,1.83,12.86-.17,19.2-2.97,9.41-9.27,15.32-19.09,17.19-3.82.73-7.65.53-11.39-.55-4.67-1.35-8.14-4.23-10.51-8.46-.26-.47-.43-1.01-.89-1.34-.49-.35-.99-.15-1.06.44-.05.39-.02.79-.02,1.18,0,8.31,0,16.62,0,24.93,0,1.95.07,1.63-1.68,1.64-2.07.01-4.13.01-6.2,0-1.12,0-1.14-.02-1.14-1.13,0-4.42,0-8.85,0-13.27,0-7.03,0-14.06,0-21.09Zm44.34-9.31c-.01-1.67-.07-3.34-.38-4.99-1.23-6.55-4.72-11.27-11.13-13.51-3.36-1.18-6.87-1.33-10.34-.62-6.72,1.38-11.2,5.25-12.81,12.07-1.04,4.42-1.04,8.89-.17,13.32,1.28,6.5,5.21,10.65,11.58,12.43,2.63.73,5.32.86,8.04.5,6.56-.86,11.19-4.25,13.71-10.39,1.16-2.82,1.51-5.78,1.49-8.81Z"/>
      <path class="cls-1" d="m252.95,65.45h-41.28c0,2.46.51,4.73,1.45,6.88,2.61,6,7.31,9.2,13.75,9.89,2.25.24,4.51.17,6.76-.17,4.85-.75,8.19-3.47,10.06-7.89.62-1.46,1.38-1.81,2.82-1.75,2.4.11,4.8.03,7.24.03,0,.31.05.51,0,.68-2.26,7.08-6.35,12.6-13.42,15.49-3.56,1.46-7.34,1.78-11.15,1.75-5.25-.04-10.26-1.08-14.83-3.75-5.81-3.41-9.49-8.46-11.15-14.95-1.81-7.1-1.64-14.16,1.16-20.97,3.53-8.59,10.14-13.4,19.26-14.78,4.42-.67,8.86-.61,13.15.72,8.93,2.76,14.09,8.93,15.77,18.05.65,3.51.31,7.05.41,10.77Zm-41.05-7.47c.52,0,1.05,0,1.59,0,8.31,0,16.61,0,24.92,0,1.18,0,2.36.01,3.54,0,1-.01,1.02-.04.99-.97-.06-1.68-.27-3.33-.8-4.93-1.36-4.13-4.05-6.86-8.34-7.94-2.32-.58-4.67-.68-7.02-.53-7.31.47-12.92,4.68-14.67,12.24-.15.65-.44,1.31-.2,2.14Z"/>
      <path class="cls-1" d="m367.21,65.55c.3,8.29,5.56,16,15.76,16.72,2.07.14,4.12.09,6.18-.22,5.05-.76,8.37-3.69,10.28-8.27.48-1.14,1.04-1.4,2.15-1.37,2.55.07,5.1.02,7.63.02.28.46.05.82-.06,1.17-1.53,4.87-4.31,8.91-8.24,12.15-2.64,2.18-5.74,3.38-9.08,3.98-5.6,1.02-11.18.95-16.62-.81-9.41-3.04-15.01-9.59-16.93-19.21-1.19-5.98-.97-11.97,1.12-17.74,3.34-9.26,10.04-14.54,19.72-16.06,4.02-.63,8.07-.61,12.02.4,8.9,2.28,14.47,7.95,16.67,16.88.59,2.4.71,4.86.67,7.32-.02,1.33-.05,2.66.01,3.98.04.81-.28,1.05-1.01.96-.29-.03-.59,0-.88,0-12.59,0-25.19,0-37.78,0-.53,0-1.08-.08-1.6.1Zm.19-7.7c.45.2.9.13,1.33.13,9.43,0,18.86,0,28.3,0,.1,0,.2,0,.29,0q1.16-.03,1.14-1.13c-.02-1.18-.15-2.36-.42-3.5-1.19-4.91-4.06-8.18-9.12-9.33-2.32-.53-4.68-.56-7.04-.39-6.93.49-12.08,4.67-14,11.35-.27.93-.62,1.86-.48,2.87Z"/>
      <path class="cls-1" d="m504.4,37.04c2.38,0,4.64-.03,6.89,0,2.75.04,2.05-.51,2.98,2.17,4.61,13.42,9.18,26.86,13.76,40.28.16.46.33.93.53,1.37.24.54.68.81,1.29.82.66.01,1.14-.26,1.41-.86.16-.36.29-.73.42-1.1,4.7-13.75,9.39-27.5,14.09-41.26.1-.28.2-.56.28-.84.13-.43.39-.62.86-.61,2.41.02,4.82.01,7.23,0,.5,0,.7.19.7.7,0,.74-.05,1.46-.29,2.17-4.19,12.58-8.37,25.16-12.56,37.73-1.91,5.73-3.81,11.46-5.72,17.19-.62,1.87-1.39,3.67-2.39,5.38-2.34,3.99-5.86,6.25-10.35,7.11-1.84.35-3.71.46-5.58.48-2.95.03-5.9-.01-8.85.02-.75,0-1.04-.18-1.02-.99.05-2.06.04-4.13,0-6.19,0-.64.21-.86.85-.85,4.37.08,8.75-.14,13.12.37,3.18.38,3.55.11,4.65-2.89.68-1.84,1.35-3.69,2.03-5.53.1-.28.22-.55.3-.83.39-1.33-.05-2-1.42-2.05-1.47-.06-2.95,0-4.43-.03-1.95-.04-1.54.34-2.18-1.61-5.39-16.22-10.76-32.44-16.14-48.65-.15-.46-.29-.93-.48-1.54Z"/>
      <path class="cls-1" d="m430.93,68.08c-.96,1.21-1.82,2.28-2.67,3.36-4.28,5.45-8.57,10.9-12.82,16.38-.61.79-1.24,1.09-2.22,1.06-2.41-.06-4.82,0-7.23-.03-.47,0-1.16.26-1.35-.22-.27-.65-.3-1.44.13-2.11.19-.29.42-.54.64-.81,6.24-7.73,12.48-15.45,18.72-23.18.09-.11.17-.24.28-.34.53-.48.51-.9.05-1.49-1.61-2.05-3.14-4.16-4.71-6.24-3.6-4.8-7.21-9.59-10.81-14.39-.18-.24-.36-.47-.53-.71-.45-.62-.38-1.37-.2-1.99.19-.64.94-.31,1.43-.32,2.41-.03,4.82.02,7.23-.03.88-.02,1.41.28,1.93,1,4.1,5.71,8.25,11.38,12.39,17.06.28.39.48.87,1.01,1.11.79-1,1.58-2,2.36-3,3.97-5.07,7.96-10.13,11.9-15.22.54-.7,1.09-.97,1.97-.95,2.51.06,5.02,0,7.53.03.46,0,1.16-.26,1.32.29.18.62.27,1.37-.14,2-.21.33-.48.62-.73.93-5.76,7.1-11.53,14.2-17.29,21.3q-1.12,1.39,0,2.89c5.32,7.13,10.64,14.27,15.98,21.39.53.71.86,1.39.78,2.29-.04.48-.18.72-.69.72-2.85,0-5.71-.01-8.56,0-.69,0-.89-.55-1.19-.96-3.12-4.24-6.22-8.49-9.33-12.73-1.68-2.3-3.37-4.6-5.2-7.08Z"/>
      <path class="cls-1" d="m504.2,44.67c-3.87,0-7.46,0-11.05,0-2.04,0-1.75-.12-1.75,1.71-.02,8.8-.03,17.6-.03,26.4,0,2.02-.22,4.02-.39,6.03-.19,2.26.24,2.75,2.54,2.5,3.82-.41,7.65-.45,11.49-.45,1.35,0,1.35.01,1.36,1.37,0,1.92,0,3.83,0,5.75,0,.49-.03.88-.67.87-4.07-.11-8.17.36-12.2-.6-6.15-1.46-9.65-5.24-10.71-11.48-.31-1.8-.37-3.62-.37-5.43,0-8.36,0-16.71,0-25.07,0-1.66.21-1.6-1.58-1.6-2.36,0-4.72,0-7.08,0-1.07,0-1.1-.02-1.1-1.03-.02-1.87.02-3.74-.02-5.6-.02-.76.21-1.03,1-1.01,2.36.05,4.72.02,7.08.02,1.79,0,1.7.19,1.7-1.64,0-3.69,0-7.37,0-11.06,0-1.26.01-1.27,1.28-1.28,2.21,0,4.43-.01,6.64,0,1.02,0,1.04.03,1.04,1.08,0,3.83,0,7.67,0,11.5,0,1.37,0,1.38,1.34,1.39,2.66,0,5.31,0,7.97,0,.49,0,.97-.06,1.17.59.73,2.28,1.49,4.54,2.32,7.04Z"/>
      <path class="cls-1" d="m256.38,63.07c0-8.11,0-16.22,0-24.34,0-.2,0-.39,0-.59.02-1.06.02-1.09,1.02-1.09,2.36-.01,4.72.02,7.08-.02.73-.01.92.26.91.95-.04,2.06-.01,4.13-.01,6.19,0,.34,0,.69.02,1.03.02.36.1.69.55.74.38.04.69-.07.86-.42.15-.31.28-.63.39-.95,1.48-4.28,4.6-6.59,8.93-7.43,2.48-.48,5-.3,7.5-.32.49,0,.71.19.7.69-.01,2.51-.02,5.01,0,7.52,0,.69-.34.81-.92.81-1.72-.01-3.44,0-5.16,0-1.78.01-3.53.18-5.24.7-3.58,1.08-5.9,3.37-6.92,6.99-.54,1.91-.72,3.86-.72,5.83-.02,9.29-.02,18.58-.02,27.88,0,1.91.15,1.6-1.68,1.61-2.07.01-4.13.01-6.2,0-1.09,0-1.1-.02-1.1-1.16,0-8.21,0-16.42,0-24.63Z"/>
      <path class="cls-1" d="m353.55,53.03c0,11.41,0,22.82,0,34.22,0,.3-.02.59,0,.88.04.49-.15.71-.67.71-2.56-.01-5.12-.01-7.67,0-.43,0-.63-.17-.61-.61.01-.29,0-.59,0-.89,0-22.92,0-45.83,0-68.74,0-.2.02-.39,0-.59-.06-.66.13-.97.89-.96,2.41.04,4.82.03,7.23,0,.65,0,.9.22.84.85-.03.29,0,.59,0,.88,0,11.41,0,22.82,0,34.22Z"/>
      <path class="cls-1" d="m469.83,63.08c0,8.01,0,16.02,0,24.03,0,.34-.02.69,0,1.03.03.49-.17.71-.68.71-2.56,0-5.11,0-7.67,0-.42,0-.64-.17-.63-.61,0-.34,0-.69,0-1.03,0-16.17,0-32.34,0-48.51,0-1.91-.19-1.65,1.63-1.66,1.97-.01,3.93,0,5.9,0,1.6,0,1.44-.1,1.44,1.41,0,8.21,0,16.42,0,24.62Z"/>
      <path class="cls-1" d="m470.39,20.18c0,3.58,0,7.01,0,10.44,0,.56-.19.79-.76.79-2.99-.01-5.99-.02-8.98,0-.67,0-.81-.32-.81-.91.02-3.19.01-6.38,0-9.57,0-.45.08-.76.62-.76,3.28,0,6.56,0,9.92,0Z"/>
    </g>
  </g>
</svg>