<?xml version="1.0" encoding="UTF-8"?>
<svg id="Layer_2" data-name="Layer 2" xmlns="http://www.w3.org/2000/svg" viewBox="0 0 2468.17 406.79">
  <defs>
    <style>
      .cls-1 {
        stroke: #fff;
        stroke-miterlimit: 10;
        stroke-width: 4px;
      }

      .cls-1, .cls-2 {
        fill: #fff;
      }

      .cls-3 {
        fill: #b19cfc;
      }

      .cls-3, .cls-2 {
        stroke-width: 0px;
      }
    </style>
  </defs>
  <g id="Layer_1-2" data-name="Layer 1">
    <path class="cls-2" d="m178.21,179.67C118.81,123.53,59.4,67.4,0,11.26c2.12-2.75,4.24-5.5,6.35-8.25C11.35,2.11,16.34.42,21.34.41,104.66.22,187.98.48,271.3,0c15.23-.09,23.18,3.03,23.03,20.8-.73,87.92-.4,175.86-.56,263.79,0,3.42-1.21,6.84-2.43,13.26-52.62,0-104.93-1.25-157.12.82-14.35.57-31.11,7.91-41.93,17.57-30.8,27.49-59.12,57.78-92.02,90.56v-219.13h174.19c1.25-2.67,2.51-5.33,3.76-8Z"/>
    <path class="cls-3" d="m2379.03,240.17c30.78,16.27,34.51,23.15,31.32,57.82,16.27-30.78,23.15-34.51,57.82-31.32-30.78-16.27-34.51-23.15-31.32-57.82-16.27,30.78-23.15,34.51-57.82,31.32Z"/>
    <g>
      <path class="cls-1" d="m690.55,158.92c0,66.02-45.73,108.97-107.77,108.97-27.04,0-50.9-9.15-68-28.63v103h-49.71V52.74h47.33v27.84c16.7-20.28,41.36-30.22,70.39-30.22,62.04,0,107.77,42.95,107.77,108.57Zm-50.51,0c0-40.56-27.04-66.41-62.83-66.41s-63.23,25.85-63.23,66.41,27.44,66.41,63.23,66.41,62.83-25.85,62.83-66.41Z"/>
      <path class="cls-1" d="m858.37,50.35v47.33c-4.37-.8-7.95-1.19-11.53-1.19-37.78,0-61.64,22.27-61.64,65.62v103h-49.71V52.74h47.33v31.02c14.32-22.27,40.17-33.41,75.56-33.41Z"/>
      <path class="cls-1" d="m878.66,158.92c0-63.63,47.72-108.57,112.94-108.57s113.34,44.94,113.34,108.57-47.33,108.97-113.34,108.97-112.94-45.34-112.94-108.97Zm176.18,0c0-40.56-27.04-66.41-63.23-66.41s-62.83,25.85-62.83,66.41,27.04,66.41,62.83,66.41,63.23-25.85,63.23-66.41Z"/>
      <path class="cls-1" d="m1505.41,143.41v121.69h-49.71v-115.33c0-37.78-17.5-56.07-47.72-56.07-32.61,0-55.28,21.48-55.28,63.63v107.77h-49.71v-115.33c0-37.78-17.5-56.07-47.72-56.07-33.01,0-55.28,21.48-55.28,63.63v107.77h-49.71V52.74h47.33v27.04c15.91-19.09,40.56-29.43,69.6-29.43,31.02,0,56.87,11.53,71.58,35.39,17.1-21.87,45.73-35.39,79.54-35.39,51.3,0,87.09,29.03,87.09,93.06Z"/>
      <path class="cls-1" d="m1792.15,158.92c0,66.02-45.73,108.97-107.77,108.97-27.04,0-50.9-9.15-68-28.63v103h-49.71V52.74h47.33v27.84c16.7-20.28,41.36-30.22,70.39-30.22,62.04,0,107.77,42.95,107.77,108.57Zm-50.51,0c0-40.56-27.04-66.41-62.83-66.41s-63.23,25.85-63.23,66.41,27.44,66.41,63.23,66.41,62.83-25.85,62.83-66.41Z"/>
      <path class="cls-1" d="m1964.74,253.57c-11.93,9.54-29.83,14.32-47.72,14.32-46.53,0-73.17-24.66-73.17-71.58v-102.21h-35v-39.77h35V5.81h49.71v48.52h56.87v39.77h-56.87v101.01c0,20.68,10.34,31.82,29.43,31.82,10.34,0,20.28-2.78,27.84-8.75l13.92,35.39Z"/>
      <path class="cls-1" d="m2195.01,174.83h-166.63c5.97,31.02,31.82,50.9,68.8,50.9,23.86,0,42.55-7.56,57.67-23.07l26.64,30.62c-19.09,22.67-48.92,34.6-85.5,34.6-71.19,0-117.32-45.73-117.32-108.97s46.53-108.57,109.76-108.57,107.38,43.35,107.38,109.76c0,3.98-.4,9.94-.8,14.71Zm-167.03-33.01h120.5c-3.98-30.62-27.44-51.7-60.05-51.7s-55.68,20.68-60.45,51.7Z"/>
      <path class="cls-1" d="m2364.02,50.35v47.33c-4.38-.8-7.95-1.19-11.53-1.19-37.78,0-61.64,22.27-61.64,65.62v103h-49.71V52.74h47.33v31.02c14.32-22.27,40.17-33.41,75.56-33.41Z"/>
    </g>
  </g>
</svg>