<?xml version="1.0" encoding="UTF-8"?>
<svg id="Layer_2" data-name="Layer 2" xmlns="http://www.w3.org/2000/svg" viewBox="0 0 2483.5 408.98">
  <defs>
    <style>
      .cls-1 {
        stroke: #000;
        stroke-miterlimit: 10;
        stroke-width: 4px;
      }

      .cls-2, .cls-3 {
        stroke-width: 0px;
      }

      .cls-3 {
        fill: #1da1f2;
      }
    </style>
  </defs>
  <g id="Layer_1-2" data-name="Layer 1">
    <path class="cls-2" d="m172.25,189.46C114.83,135.21,57.42,80.95,0,26.7c2.05-2.66,4.09-5.32,6.14-7.98,4.83-.87,9.65-2.5,14.49-2.51,80.53-.18,161.06.07,241.59-.4,14.72-.08,22.4,2.93,22.26,20.1-.71,84.98-.39,169.97-.54,254.96,0,3.3-1.17,6.61-2.35,12.81-50.86,0-101.42-1.21-151.86.79-13.87.55-30.07,7.64-40.53,16.98-29.77,26.57-57.14,55.84-88.94,87.53v-211.79h168.36c1.21-2.58,2.42-5.15,3.63-7.73Z"/>
    <path class="cls-3" d="m2405.59,245.31c26.9,14.22,30.16,20.23,27.38,50.53,14.22-26.9,20.23-30.16,50.53-27.38-26.9-14.22-30.16-20.23-27.38-50.53-14.22,26.9-20.23,30.16-50.53,27.38Z"/>
    <g>
      <path class="cls-1" d="m707.55,155.11c0,66.02-45.73,108.97-107.77,108.97-27.04,0-50.9-9.15-68-28.63v103h-49.71V48.93h47.33v27.84c16.7-20.28,41.36-30.22,70.39-30.22,62.04,0,107.77,42.95,107.77,108.57Zm-50.51,0c0-40.56-27.04-66.41-62.83-66.41s-63.23,25.85-63.23,66.41,27.44,66.41,63.23,66.41,62.83-25.85,62.83-66.41Z"/>
      <path class="cls-1" d="m875.37,46.54v47.33c-4.37-.8-7.95-1.19-11.53-1.19-37.78,0-61.64,22.27-61.64,65.62v103h-49.71V48.93h47.33v31.02c14.32-22.27,40.17-33.41,75.56-33.41Z"/>
      <path class="cls-1" d="m895.66,155.11c0-63.63,47.72-108.57,112.94-108.57s113.34,44.94,113.34,108.57-47.33,108.97-113.34,108.97-112.94-45.34-112.94-108.97Zm176.18,0c0-40.56-27.04-66.41-63.23-66.41s-62.83,25.85-62.83,66.41,27.04,66.41,62.83,66.41,63.23-25.85,63.23-66.41Z"/>
      <path class="cls-1" d="m1522.41,139.6v121.69h-49.71v-115.33c0-37.78-17.5-56.07-47.72-56.07-32.61,0-55.28,21.48-55.28,63.63v107.77h-49.71v-115.33c0-37.78-17.5-56.07-47.72-56.07-33.01,0-55.28,21.48-55.28,63.63v107.77h-49.71V48.93h47.33v27.04c15.91-19.09,40.56-29.43,69.6-29.43,31.02,0,56.87,11.53,71.58,35.39,17.1-21.87,45.73-35.39,79.54-35.39,51.3,0,87.09,29.03,87.09,93.06Z"/>
      <path class="cls-1" d="m1809.15,155.11c0,66.02-45.73,108.97-107.77,108.97-27.04,0-50.9-9.15-68-28.63v103h-49.71V48.93h47.33v27.84c16.7-20.28,41.36-30.22,70.39-30.22,62.04,0,107.77,42.95,107.77,108.57Zm-50.51,0c0-40.56-27.04-66.41-62.83-66.41s-63.23,25.85-63.23,66.41,27.44,66.41,63.23,66.41,62.83-25.85,62.83-66.41Z"/>
      <path class="cls-1" d="m1981.74,249.76c-11.93,9.54-29.83,14.32-47.72,14.32-46.53,0-73.17-24.66-73.17-71.58v-102.21h-35v-39.77h35V2h49.71v48.52h56.87v39.77h-56.87v101.01c0,20.68,10.34,31.82,29.43,31.82,10.34,0,20.28-2.78,27.84-8.75l13.92,35.39Z"/>
      <path class="cls-1" d="m2212.01,171.02h-166.63c5.97,31.02,31.82,50.9,68.8,50.9,23.86,0,42.55-7.56,57.67-23.07l26.64,30.62c-19.09,22.67-48.92,34.6-85.5,34.6-71.19,0-117.32-45.73-117.32-108.97s46.53-108.57,109.76-108.57,107.38,43.35,107.38,109.76c0,3.98-.4,9.94-.8,14.71Zm-167.03-33.01h120.5c-3.98-30.62-27.44-51.7-60.05-51.7s-55.68,20.68-60.45,51.7Z"/>
      <path class="cls-1" d="m2381.02,46.54v47.33c-4.38-.8-7.95-1.19-11.53-1.19-37.78,0-61.64,22.27-61.64,65.62v103h-49.71V48.93h47.33v31.02c14.32-22.27,40.17-33.41,75.56-33.41Z"/>
    </g>
  </g>
</svg>